<svg width="331" height="48" viewBox="0 0 331 48" fill="none" xmlns="http://www.w3.org/2000/svg">
<path d="M0 40C0 44.4183 3.58172 48 8 48H323C327.418 48 331 44.4183 331 40V8C331 3.58172 327.418 0 323 0H8.00001C3.58173 0 0 3.58172 0 8V40Z" fill="url(#paint0_linear_45635_865)"/>
<path d="M146.313 28V16.3636H148.773V25.9716H153.762V28H146.313ZM159.056 28.1705C158.173 28.1705 157.41 27.983 156.766 27.608C156.126 27.2292 155.632 26.7027 155.283 26.0284C154.935 25.3504 154.761 24.5644 154.761 23.6705C154.761 22.7689 154.935 21.9811 155.283 21.3068C155.632 20.6288 156.126 20.1023 156.766 19.7273C157.41 19.3485 158.173 19.1591 159.056 19.1591C159.939 19.1591 160.7 19.3485 161.34 19.7273C161.984 20.1023 162.48 20.6288 162.829 21.3068C163.177 21.9811 163.351 22.7689 163.351 23.6705C163.351 24.5644 163.177 25.3504 162.829 26.0284C162.48 26.7027 161.984 27.2292 161.34 27.608C160.7 27.983 159.939 28.1705 159.056 28.1705ZM159.067 26.2955C159.469 26.2955 159.804 26.1818 160.073 25.9545C160.342 25.7235 160.545 25.4091 160.681 25.0114C160.821 24.6136 160.891 24.161 160.891 23.6534C160.891 23.1458 160.821 22.6932 160.681 22.2955C160.545 21.8977 160.342 21.5833 160.073 21.3523C159.804 21.1212 159.469 21.0057 159.067 21.0057C158.662 21.0057 158.321 21.1212 158.045 21.3523C157.772 21.5833 157.565 21.8977 157.425 22.2955C157.289 22.6932 157.221 23.1458 157.221 23.6534C157.221 24.161 157.289 24.6136 157.425 25.0114C157.565 25.4091 157.772 25.7235 158.045 25.9545C158.321 26.1818 158.662 26.2955 159.067 26.2955ZM168.624 31.4545C167.84 31.4545 167.168 31.3466 166.607 31.1307C166.05 30.9186 165.607 30.6288 165.278 30.2614C164.948 29.8939 164.734 29.4811 164.636 29.0227L166.874 28.7216C166.942 28.8958 167.05 29.0587 167.198 29.2102C167.346 29.3617 167.541 29.483 167.783 29.5739C168.03 29.6686 168.329 29.7159 168.681 29.7159C169.208 29.7159 169.641 29.5871 169.982 29.3295C170.327 29.0758 170.499 28.6496 170.499 28.0511V26.4545H170.397C170.291 26.697 170.132 26.9261 169.92 27.142C169.708 27.358 169.435 27.5341 169.102 27.6705C168.768 27.8068 168.371 27.875 167.908 27.875C167.253 27.875 166.656 27.7235 166.119 27.4205C165.585 27.1136 165.158 26.6458 164.84 26.017C164.526 25.3845 164.369 24.5852 164.369 23.6193C164.369 22.6307 164.53 21.8049 164.852 21.142C165.174 20.4792 165.602 19.983 166.136 19.6534C166.674 19.3239 167.263 19.1591 167.903 19.1591C168.391 19.1591 168.8 19.2424 169.13 19.4091C169.46 19.572 169.725 19.7765 169.925 20.0227C170.13 20.2652 170.287 20.5038 170.397 20.7386H170.488V19.2727H172.891V28.0852C172.891 28.8277 172.71 29.4489 172.346 29.9489C171.982 30.4489 171.478 30.8239 170.835 31.0739C170.194 31.3277 169.458 31.4545 168.624 31.4545ZM168.675 26.0568C169.066 26.0568 169.395 25.9602 169.664 25.767C169.937 25.5701 170.145 25.2898 170.289 24.9261C170.437 24.5587 170.511 24.1193 170.511 23.608C170.511 23.0966 170.439 22.6534 170.295 22.2784C170.151 21.8996 169.942 21.6061 169.67 21.3977C169.397 21.1894 169.066 21.0852 168.675 21.0852C168.278 21.0852 167.942 21.1932 167.67 21.4091C167.397 21.6212 167.191 21.9167 167.05 22.2955C166.91 22.6742 166.84 23.1117 166.84 23.608C166.84 24.1117 166.91 24.5473 167.05 24.9148C167.194 25.2784 167.401 25.5606 167.67 25.7614C167.942 25.9583 168.278 26.0568 168.675 26.0568ZM174.585 28V19.2727H177.005V28H174.585ZM175.801 18.1477C175.441 18.1477 175.132 18.0284 174.874 17.7898C174.621 17.5473 174.494 17.2576 174.494 16.9205C174.494 16.5871 174.621 16.3011 174.874 16.0625C175.132 15.8201 175.441 15.6989 175.801 15.6989C176.16 15.6989 176.467 15.8201 176.721 16.0625C176.979 16.3011 177.107 16.5871 177.107 16.9205C177.107 17.2576 176.979 17.5473 176.721 17.7898C176.467 18.0284 176.16 18.1477 175.801 18.1477ZM181.132 22.9545V28H178.711V19.2727H181.018V20.8125H181.12C181.313 20.3049 181.637 19.9034 182.092 19.608C182.546 19.3087 183.098 19.1591 183.745 19.1591C184.351 19.1591 184.88 19.2917 185.331 19.5568C185.781 19.822 186.132 20.2008 186.382 20.6932C186.632 21.1818 186.757 21.7652 186.757 22.4432V28H184.336V22.875C184.34 22.3409 184.204 21.9242 183.927 21.625C183.651 21.322 183.27 21.1705 182.785 21.1705C182.459 21.1705 182.171 21.2405 181.921 21.3807C181.675 21.5208 181.482 21.7254 181.342 21.9943C181.206 22.2595 181.135 22.5795 181.132 22.9545Z" fill="white"/>
<defs>
<linearGradient id="paint0_linear_45635_865" x1="-4.53245e-06" y1="-1.9848e-06" x2="38.0112" y2="-86.802" gradientUnits="userSpaceOnUse">
<stop stop-color="#62CDCB"/>
<stop offset="1" stop-color="#4599DB"/>
</linearGradient>
</defs>
</svg>
